<svg width="1028" height="723" viewBox="0 0 1028 723" fill="none" xmlns="http://www.w3.org/2000/svg">
<path d="M722.362 722.518H304.812C223.957 722.477 146.427 690.328 89.268 633.14C32.1091 575.952 -1.0396e-05 498.406 0 417.551C0 306.809 43.9919 200.604 122.298 122.298C200.604 43.9922 306.809 0 417.55 0H610.087C720.829 0 827.034 43.9922 905.34 122.298C983.646 200.604 1027.64 306.809 1027.64 417.551C1027.66 457.631 1019.77 497.323 1004.44 534.352C989.097 571.382 966.607 605.023 938.251 633.349C909.896 661.676 876.232 684.133 839.187 699.434C802.142 714.734 762.443 722.579 722.362 722.518Z" fill="#3FCA58"/>
<path d="M334.658 314.867V407.811" stroke="white" stroke-width="92.789" stroke-linecap="round" stroke-linejoin="round"/>
<path d="M723.138 301.723L615.193 361.417L723.138 420.957" stroke="white" stroke-width="77.3242" stroke-linecap="round" stroke-linejoin="round"/>
</svg>
